<svg version="1.1" preserveAspectRatio="none" xmlns="http://www.w3.org/2000/svg" width="500" height="500" viewBox="0 0 500 500"><rect width="100%" height="100%" fill="#D4A373" fill-opacity="1"/><svg viewBox="575 342.8051 380 59.3897" width="417" height="65.17238131578947" x="41.5px" y="217.4138px" xmlns="http://www.w3.org/2000/svg" xmlns:xlink="http://www.w3.org/1999/xlink" preserveAspectRatio="none"><defs></defs><style>.companyName1a614edb-18a0-44ef-9834-12dd77a50a80 {fill:#FEFAE0;fill-opacity:1;}.icon3-str1a614edb-18a0-44ef-9834-12dd77a50a80 {stroke:#C8C5AF;stroke-opacity:1;}</style><g opacity="1" transform="rotate(0 575 342.8051)">
<svg width="172.6522" height="59.3897" x="575" y="342.8051" version="1.1" preserveAspectRatio="none" viewBox="3.32 -28 81.4 28">
  <g transform="matrix(1 0 0 1 0 0)" class="companyName1a614edb-18a0-44ef-9834-12dd77a50a80"><path id="id-1a614edb-18a0-44ef-9834-12dd77a50a80D6z1nYkh3" d="M15.44-28Q19.16-28 21.90-26.76Q24.64-25.52 26.12-23.24Q27.60-20.96 27.60-17.84L27.60-17.84Q27.60-14.76 26.12-12.46Q24.64-10.16 21.90-8.94Q19.16-7.72 15.44-7.72L15.44-7.72L9.80-7.72L9.80 0L3.32 0L3.32-28L15.44-28ZM15.08-13Q18-13 19.52-14.26Q21.04-15.52 21.04-17.84L21.04-17.84Q21.04-20.20 19.52-21.46Q18-22.72 15.08-22.72L15.08-22.72L9.80-22.72L9.80-13L15.08-13Z M38.64-5.20L53.88-5.20L53.88 0L32.20 0L32.20-28L53.36-28L53.36-22.80L38.64-22.80L38.64-16.72L51.64-16.72L51.64-11.68L38.64-11.68L38.64-5.20Z M78.32-28L84.72-28L84.72 0L79.40 0L65.44-17L65.44 0L59.04 0L59.04-28L64.40-28L78.32-11L78.32-28Z"/></g>
</svg>
</g><g opacity="1" transform="rotate(0 760.52 342.8051)">
<svg width="194.48" height="59.3897" x="760.52" y="342.8051" version="1.1" preserveAspectRatio="none" viewBox="4.88 -28.2 93 28.4">
  <g transform="matrix(1 0 0 1 0 0)" class="companyName1a614edb-18a0-44ef-9834-12dd77a50a80"><path id="id-1a614edb-18a0-44ef-9834-12dd77a50a80-VpF9B9iX4" d="M6.92-1.84L24.20-1.84L24.20 0L4.88 0L4.88-28L23.60-28L23.60-26.16L6.92-26.16L6.92-15.12L21.84-15.12L21.84-13.32L6.92-13.32L6.92-1.84Z M52.56 0L48.96-7.88L32.72-7.88L29.16 0L26.96 0L39.84-28L41.88-28L54.76 0L52.56 0ZM33.52-9.60L48.20-9.60L40.84-25.76L33.52-9.60Z M63.80 0L63.80-26.16L53.72-26.16L53.72-28L75.92-28L75.92-26.16L65.84-26.16L65.84 0L63.80 0Z M87.80 0.20Q84.72 0.20 81.94-0.86Q79.16-1.92 77.60-3.60L77.60-3.60L78.52-5.12Q80-3.56 82.50-2.58Q85-1.60 87.76-1.60L87.76-1.60Q91.76-1.60 93.80-3.12Q95.84-4.64 95.84-7.08L95.84-7.08Q95.84-8.96 94.76-10.08Q93.68-11.20 92.08-11.80Q90.48-12.40 87.76-13.04L87.76-13.04Q84.68-13.80 82.82-14.52Q80.96-15.24 79.66-16.74Q78.36-18.24 78.36-20.76L78.36-20.76Q78.36-22.80 79.44-24.50Q80.52-26.20 82.74-27.20Q84.96-28.20 88.28-28.20L88.28-28.20Q90.60-28.20 92.84-27.52Q95.08-26.84 96.72-25.68L96.72-25.68L95.96-24.04Q94.28-25.20 92.26-25.80Q90.24-26.40 88.28-26.40L88.28-26.40Q84.40-26.40 82.40-24.84Q80.40-23.28 80.40-20.80L80.40-20.80Q80.40-18.92 81.48-17.80Q82.56-16.68 84.16-16.08Q85.76-15.48 88.52-14.80L88.52-14.80Q91.60-14.04 93.44-13.32Q95.28-12.60 96.58-11.14Q97.88-9.68 97.88-7.20L97.88-7.20Q97.88-5.16 96.78-3.48Q95.68-1.80 93.40-0.80Q91.12 0.20 87.80 0.20L87.80 0.20Z"/></g>
</svg>
</g></svg></svg>
